<mxfile host="app.diagrams.net" agent="Mozilla/5.0 (Windows NT 10.0; Win64; x64) AppleWebKit/537.36 (KHTML, like Gecko) Chrome/136.0.0.0 Safari/537.36" version="27.0.3">
  <diagram name="Page-1" id="XtFgWHoOtROQe3sLC01g">
    <mxGraphModel dx="3885" dy="1898" grid="1" gridSize="10" guides="1" tooltips="1" connect="1" arrows="1" fold="1" page="1" pageScale="1" pageWidth="4681" pageHeight="3300" math="0" shadow="0">
      <root>
        <mxCell id="0" />
        <mxCell id="1" parent="0" />
        <mxCell id="T8jwcUpZhJJAnp_-eP6j-1" value="&lt;p style=&quot;margin:0px;margin-top:4px;margin-left:7px;text-align:left;&quot;&gt;&lt;font style=&quot;font-size: 19px; line-height: 45%;&quot;&gt;&lt;b&gt;req&lt;/b&gt;  ReqDiagram&lt;/font&gt;&lt;/p&gt;" style="html=1;shape=mxgraph.sysml.package;overflow=fill;labelX=160.37;strokeWidth=2;align=center;" parent="1" vertex="1">
          <mxGeometry x="1415" y="110" width="2760" height="1756" as="geometry" />
        </mxCell>
        <mxCell id="T8jwcUpZhJJAnp_-eP6j-2" value="&lt;font style=&quot;font-size: 24px;&quot;&gt;&amp;lt;&amp;lt;requirement&amp;gt;&amp;gt;&lt;br&gt;Discussion Board App&lt;/font&gt;" style="shape=rect;html=1;whiteSpace=wrap;align=center;" parent="1" vertex="1">
          <mxGeometry x="2757" y="127" width="246" height="93" as="geometry" />
        </mxCell>
        <mxCell id="T8jwcUpZhJJAnp_-eP6j-3" value="&lt;font style=&quot;font-size: 24px;&quot;&gt;&amp;lt;&amp;lt;requirement&amp;gt;&amp;gt;&lt;br&gt;Functional Requirement&lt;/font&gt;" style="shape=rect;html=1;whiteSpace=wrap;align=center;" parent="1" vertex="1">
          <mxGeometry x="2065.5" y="280" width="265" height="69" as="geometry" />
        </mxCell>
        <mxCell id="T8jwcUpZhJJAnp_-eP6j-4" value="&lt;font style=&quot;font-size: 24px;&quot;&gt;&amp;lt;&amp;lt;requirement&amp;gt;&amp;gt;&lt;br&gt;Non-functional Requirement&lt;/font&gt;" style="shape=rect;html=1;whiteSpace=wrap;align=center;" parent="1" vertex="1">
          <mxGeometry x="3902" y="280" width="202" height="108" as="geometry" />
        </mxCell>
        <mxCell id="T8jwcUpZhJJAnp_-eP6j-5" value="" style="rounded=0;html=1;labelBackgroundColor=none;endArrow=none;edgeStyle=elbowEdgeStyle;elbow=vertical;startArrow=sysMLPackCont;startSize=12;" parent="1" source="T8jwcUpZhJJAnp_-eP6j-2" target="T8jwcUpZhJJAnp_-eP6j-3" edge="1">
          <mxGeometry relative="1" as="geometry" />
        </mxCell>
        <mxCell id="T8jwcUpZhJJAnp_-eP6j-6" value="" style="rounded=0;html=1;labelBackgroundColor=none;endArrow=none;edgeStyle=elbowEdgeStyle;elbow=vertical;startArrow=sysMLPackCont;startSize=12;" parent="1" source="T8jwcUpZhJJAnp_-eP6j-2" target="T8jwcUpZhJJAnp_-eP6j-4" edge="1">
          <mxGeometry relative="1" as="geometry" />
        </mxCell>
        <mxCell id="T8jwcUpZhJJAnp_-eP6j-7" value="" style="fontStyle=1;align=center;verticalAlign=middle;childLayout=stackLayout;horizontal=1;horizontalStack=0;resizeParent=1;resizeParentMax=0;resizeLast=0;marginBottom=0;" parent="1" vertex="1">
          <mxGeometry x="1938" y="419" width="520" height="116" as="geometry" />
        </mxCell>
        <mxCell id="T8jwcUpZhJJAnp_-eP6j-8" value="&lt;font style=&quot;font-size: 24px;&quot;&gt;&amp;lt;&amp;lt;requirement&amp;gt;&amp;gt;&lt;/font&gt;" style="html=1;align=center;spacing=0;verticalAlign=middle;strokeColor=none;fillColor=none;whiteSpace=wrap;spacingTop=3;" parent="T8jwcUpZhJJAnp_-eP6j-7" vertex="1">
          <mxGeometry width="520" height="28" as="geometry" />
        </mxCell>
        <mxCell id="T8jwcUpZhJJAnp_-eP6j-9" value="&lt;font style=&quot;font-size: 24px;&quot;&gt;Sign Up&lt;/font&gt;" style="html=1;align=center;spacing=0;verticalAlign=middle;strokeColor=none;fillColor=none;whiteSpace=wrap;fontStyle=1" parent="T8jwcUpZhJJAnp_-eP6j-7" vertex="1">
          <mxGeometry y="28" width="520" height="23" as="geometry" />
        </mxCell>
        <mxCell id="T8jwcUpZhJJAnp_-eP6j-10" value="" style="line;strokeWidth=0.25;fillColor=none;align=left;verticalAlign=middle;spacingTop=-1;spacingLeft=3;spacingRight=3;rotatable=0;labelPosition=right;points=[];portConstraint=eastwest;" parent="T8jwcUpZhJJAnp_-eP6j-7" vertex="1">
          <mxGeometry y="51" width="520" height="8" as="geometry" />
        </mxCell>
        <mxCell id="T8jwcUpZhJJAnp_-eP6j-12" value="&lt;font style=&quot;font-size: 24px;&quot;&gt;Id=&quot;R001&quot;&lt;/font&gt;" style="html=1;align=left;spacing=0;verticalAlign=middle;strokeColor=none;fillColor=none;whiteSpace=wrap;spacingLeft=10;" parent="T8jwcUpZhJJAnp_-eP6j-7" vertex="1">
          <mxGeometry y="59" width="520" height="26" as="geometry" />
        </mxCell>
        <mxCell id="T8jwcUpZhJJAnp_-eP6j-11" value="&lt;font style=&quot;font-size: 24px;&quot;&gt;text=&quot;User registration functionality&quot;&lt;/font&gt;" style="html=1;align=left;spacing=0;verticalAlign=middle;strokeColor=none;fillColor=none;whiteSpace=wrap;spacingLeft=10;" parent="T8jwcUpZhJJAnp_-eP6j-7" vertex="1">
          <mxGeometry y="85" width="520" height="31" as="geometry" />
        </mxCell>
        <mxCell id="T8jwcUpZhJJAnp_-eP6j-15" value="" style="fontStyle=1;align=center;verticalAlign=middle;childLayout=stackLayout;horizontal=1;horizontalStack=0;resizeParent=1;resizeParentMax=0;resizeLast=0;marginBottom=0;" parent="1" vertex="1">
          <mxGeometry x="2009" y="600" width="372" height="121" as="geometry" />
        </mxCell>
        <mxCell id="T8jwcUpZhJJAnp_-eP6j-16" value="&lt;font style=&quot;font-size: 24px;&quot;&gt;&amp;lt;&amp;lt;requirement&amp;gt;&amp;gt;&lt;/font&gt;" style="html=1;align=center;spacing=0;verticalAlign=middle;strokeColor=none;fillColor=none;whiteSpace=wrap;spacingTop=3;" parent="T8jwcUpZhJJAnp_-eP6j-15" vertex="1">
          <mxGeometry width="372" height="30" as="geometry" />
        </mxCell>
        <mxCell id="T8jwcUpZhJJAnp_-eP6j-17" value="&lt;font style=&quot;font-size: 24px;&quot;&gt;User Authentication&lt;/font&gt;" style="html=1;align=center;spacing=0;verticalAlign=middle;strokeColor=none;fillColor=none;whiteSpace=wrap;fontStyle=1" parent="T8jwcUpZhJJAnp_-eP6j-15" vertex="1">
          <mxGeometry y="30" width="372" height="25" as="geometry" />
        </mxCell>
        <mxCell id="T8jwcUpZhJJAnp_-eP6j-18" value="" style="line;strokeWidth=0.25;fillColor=none;align=left;verticalAlign=middle;spacingTop=-1;spacingLeft=3;spacingRight=3;rotatable=0;labelPosition=right;points=[];portConstraint=eastwest;" parent="T8jwcUpZhJJAnp_-eP6j-15" vertex="1">
          <mxGeometry y="55" width="372" height="8" as="geometry" />
        </mxCell>
        <mxCell id="T8jwcUpZhJJAnp_-eP6j-20" value="&lt;font style=&quot;font-size: 24px;&quot;&gt;Id=&quot;R002&quot;&lt;/font&gt;" style="html=1;align=left;spacing=0;verticalAlign=middle;strokeColor=none;fillColor=none;whiteSpace=wrap;spacingLeft=10;" parent="T8jwcUpZhJJAnp_-eP6j-15" vertex="1">
          <mxGeometry y="63" width="372" height="26" as="geometry" />
        </mxCell>
        <mxCell id="T8jwcUpZhJJAnp_-eP6j-19" value="&lt;font style=&quot;font-size: 24px;&quot;&gt;text=&quot;Secure authentication&quot;&lt;/font&gt;" style="html=1;align=left;spacing=0;verticalAlign=middle;strokeColor=none;fillColor=none;whiteSpace=wrap;spacingLeft=10;" parent="T8jwcUpZhJJAnp_-eP6j-15" vertex="1">
          <mxGeometry y="89" width="372" height="32" as="geometry" />
        </mxCell>
        <mxCell id="T8jwcUpZhJJAnp_-eP6j-22" value="&lt;font style=&quot;font-size: 20px;&quot;&gt;&amp;lt;&amp;lt;depends on&amp;gt;&amp;gt;&lt;/font&gt;" style="edgeStyle=none;html=1;endArrow=open;endSize=12;dashed=1;verticalAlign=bottom;rounded=0;entryX=0.5;entryY=1;entryDx=0;entryDy=0;exitX=0.5;exitY=0;exitDx=0;exitDy=0;" parent="1" source="T8jwcUpZhJJAnp_-eP6j-16" target="T8jwcUpZhJJAnp_-eP6j-11" edge="1">
          <mxGeometry x="-0.5651" y="-5" width="160" relative="1" as="geometry">
            <mxPoint x="2398" y="443" as="sourcePoint" />
            <mxPoint x="2291" y="551.0000000000001" as="targetPoint" />
            <mxPoint as="offset" />
          </mxGeometry>
        </mxCell>
        <mxCell id="T8jwcUpZhJJAnp_-eP6j-23" value="" style="edgeStyle=none;html=1;startArrow=sysMLPackCont;startSize=12;endArrow=none;rounded=0;exitX=0.5;exitY=1;exitDx=0;exitDy=0;entryX=0.5;entryY=0;entryDx=0;entryDy=0;" parent="1" source="T8jwcUpZhJJAnp_-eP6j-3" target="T8jwcUpZhJJAnp_-eP6j-8" edge="1">
          <mxGeometry width="160" relative="1" as="geometry">
            <mxPoint x="2274" y="350" as="sourcePoint" />
            <mxPoint x="2192.000000000001" y="384" as="targetPoint" />
          </mxGeometry>
        </mxCell>
        <mxCell id="T8jwcUpZhJJAnp_-eP6j-29" value="" style="fontStyle=1;align=center;verticalAlign=middle;childLayout=stackLayout;horizontal=1;horizontalStack=0;resizeParent=1;resizeParentMax=0;resizeLast=0;marginBottom=0;" parent="1" vertex="1">
          <mxGeometry x="1666" y="803" width="318" height="125" as="geometry" />
        </mxCell>
        <mxCell id="T8jwcUpZhJJAnp_-eP6j-30" value="&lt;font style=&quot;font-size: 24px;&quot;&gt;&amp;lt;&amp;lt;requirement&amp;gt;&amp;gt;&lt;/font&gt;" style="html=1;align=center;spacing=0;verticalAlign=middle;strokeColor=none;fillColor=none;whiteSpace=wrap;spacingTop=3;" parent="T8jwcUpZhJJAnp_-eP6j-29" vertex="1">
          <mxGeometry width="318" height="25" as="geometry" />
        </mxCell>
        <mxCell id="T8jwcUpZhJJAnp_-eP6j-31" value="&lt;font style=&quot;font-size: 24px;&quot;&gt;Login&lt;/font&gt;" style="html=1;align=center;spacing=0;verticalAlign=middle;strokeColor=none;fillColor=none;whiteSpace=wrap;fontStyle=1" parent="T8jwcUpZhJJAnp_-eP6j-29" vertex="1">
          <mxGeometry y="25" width="318" height="27" as="geometry" />
        </mxCell>
        <mxCell id="T8jwcUpZhJJAnp_-eP6j-32" value="" style="line;strokeWidth=0.25;fillColor=none;align=left;verticalAlign=middle;spacingTop=-1;spacingLeft=3;spacingRight=3;rotatable=0;labelPosition=right;points=[];portConstraint=eastwest;" parent="T8jwcUpZhJJAnp_-eP6j-29" vertex="1">
          <mxGeometry y="52" width="318" height="8" as="geometry" />
        </mxCell>
        <mxCell id="T8jwcUpZhJJAnp_-eP6j-34" value="&lt;font style=&quot;font-size: 24px;&quot;&gt;Id=&quot;R003&quot;&lt;/font&gt;" style="html=1;align=left;spacing=0;verticalAlign=middle;strokeColor=none;fillColor=none;whiteSpace=wrap;spacingLeft=10;" parent="T8jwcUpZhJJAnp_-eP6j-29" vertex="1">
          <mxGeometry y="60" width="318" height="23" as="geometry" />
        </mxCell>
        <mxCell id="T8jwcUpZhJJAnp_-eP6j-33" value="&lt;font style=&quot;font-size: 24px;&quot;&gt;text=&quot;Secure authentication&quot;&lt;/font&gt;" style="html=1;align=left;spacing=0;verticalAlign=middle;strokeColor=none;fillColor=none;whiteSpace=wrap;spacingLeft=10;" parent="T8jwcUpZhJJAnp_-eP6j-29" vertex="1">
          <mxGeometry y="83" width="318" height="42" as="geometry" />
        </mxCell>
        <mxCell id="T8jwcUpZhJJAnp_-eP6j-36" value="" style="fontStyle=1;align=center;verticalAlign=middle;childLayout=stackLayout;horizontal=1;horizontalStack=0;resizeParent=1;resizeParentMax=0;resizeLast=0;marginBottom=0;" parent="1" vertex="1">
          <mxGeometry x="2012" y="900" width="354" height="132" as="geometry" />
        </mxCell>
        <mxCell id="T8jwcUpZhJJAnp_-eP6j-37" value="&lt;font style=&quot;font-size: 24px;&quot;&gt;&amp;lt;&amp;lt;requirement&amp;gt;&amp;gt;&lt;/font&gt;" style="html=1;align=center;spacing=0;verticalAlign=middle;strokeColor=none;fillColor=none;whiteSpace=wrap;spacingTop=3;" parent="T8jwcUpZhJJAnp_-eP6j-36" vertex="1">
          <mxGeometry width="354" height="28" as="geometry" />
        </mxCell>
        <mxCell id="T8jwcUpZhJJAnp_-eP6j-38" value="&lt;font style=&quot;font-size: 24px;&quot;&gt;Logout&lt;/font&gt;" style="html=1;align=center;spacing=0;verticalAlign=middle;strokeColor=none;fillColor=none;whiteSpace=wrap;fontStyle=1" parent="T8jwcUpZhJJAnp_-eP6j-36" vertex="1">
          <mxGeometry y="28" width="354" height="27" as="geometry" />
        </mxCell>
        <mxCell id="T8jwcUpZhJJAnp_-eP6j-39" value="" style="line;strokeWidth=0.25;fillColor=none;align=left;verticalAlign=middle;spacingTop=-1;spacingLeft=3;spacingRight=3;rotatable=0;labelPosition=right;points=[];portConstraint=eastwest;" parent="T8jwcUpZhJJAnp_-eP6j-36" vertex="1">
          <mxGeometry y="55" width="354" height="8" as="geometry" />
        </mxCell>
        <mxCell id="T8jwcUpZhJJAnp_-eP6j-41" value="&lt;font style=&quot;font-size: 24px;&quot;&gt;Id=&quot;R004&quot;&lt;/font&gt;" style="html=1;align=left;spacing=0;verticalAlign=middle;strokeColor=none;fillColor=none;whiteSpace=wrap;spacingLeft=10;" parent="T8jwcUpZhJJAnp_-eP6j-36" vertex="1">
          <mxGeometry y="63" width="354" height="27" as="geometry" />
        </mxCell>
        <mxCell id="T8jwcUpZhJJAnp_-eP6j-40" value="&lt;font style=&quot;font-size: 24px;&quot;&gt;text=&quot;User session termination&quot;&lt;/font&gt;" style="html=1;align=left;spacing=0;verticalAlign=middle;strokeColor=none;fillColor=none;whiteSpace=wrap;spacingLeft=10;" parent="T8jwcUpZhJJAnp_-eP6j-36" vertex="1">
          <mxGeometry y="90" width="354" height="42" as="geometry" />
        </mxCell>
        <mxCell id="T8jwcUpZhJJAnp_-eP6j-43" value="" style="fontStyle=1;align=center;verticalAlign=middle;childLayout=stackLayout;horizontal=1;horizontalStack=0;resizeParent=1;resizeParentMax=0;resizeLast=0;marginBottom=0;" parent="1" vertex="1">
          <mxGeometry x="1514" y="997" width="424" height="133" as="geometry" />
        </mxCell>
        <mxCell id="T8jwcUpZhJJAnp_-eP6j-44" value="&lt;font style=&quot;font-size: 24px;&quot;&gt;&amp;lt;&amp;lt;requirement&amp;gt;&amp;gt;&lt;/font&gt;" style="html=1;align=center;spacing=0;verticalAlign=middle;strokeColor=none;fillColor=none;whiteSpace=wrap;spacingTop=3;" parent="T8jwcUpZhJJAnp_-eP6j-43" vertex="1">
          <mxGeometry width="424" height="29" as="geometry" />
        </mxCell>
        <mxCell id="T8jwcUpZhJJAnp_-eP6j-45" value="&lt;font style=&quot;font-size: 24px;&quot;&gt;Authentication Process&lt;/font&gt;" style="html=1;align=center;spacing=0;verticalAlign=middle;strokeColor=none;fillColor=none;whiteSpace=wrap;fontStyle=1" parent="T8jwcUpZhJJAnp_-eP6j-43" vertex="1">
          <mxGeometry y="29" width="424" height="32" as="geometry" />
        </mxCell>
        <mxCell id="T8jwcUpZhJJAnp_-eP6j-46" value="" style="line;strokeWidth=0.25;fillColor=none;align=left;verticalAlign=middle;spacingTop=-1;spacingLeft=3;spacingRight=3;rotatable=0;labelPosition=right;points=[];portConstraint=eastwest;" parent="T8jwcUpZhJJAnp_-eP6j-43" vertex="1">
          <mxGeometry y="61" width="424" height="8" as="geometry" />
        </mxCell>
        <mxCell id="T8jwcUpZhJJAnp_-eP6j-48" value="&lt;font style=&quot;font-size: 24px;&quot;&gt;Id=&quot;R005&quot;&lt;/font&gt;" style="html=1;align=left;spacing=0;verticalAlign=middle;strokeColor=none;fillColor=none;whiteSpace=wrap;spacingLeft=10;" parent="T8jwcUpZhJJAnp_-eP6j-43" vertex="1">
          <mxGeometry y="69" width="424" height="24" as="geometry" />
        </mxCell>
        <mxCell id="T8jwcUpZhJJAnp_-eP6j-47" value="&lt;font style=&quot;font-size: 24px;&quot;&gt;text=&quot;Call authentication process&quot;&lt;/font&gt;" style="html=1;align=left;spacing=0;verticalAlign=middle;strokeColor=none;fillColor=none;whiteSpace=wrap;spacingLeft=10;" parent="T8jwcUpZhJJAnp_-eP6j-43" vertex="1">
          <mxGeometry y="93" width="424" height="40" as="geometry" />
        </mxCell>
        <mxCell id="T8jwcUpZhJJAnp_-eP6j-50" value="" style="fontStyle=1;align=center;verticalAlign=middle;childLayout=stackLayout;horizontal=1;horizontalStack=0;resizeParent=1;resizeParentMax=0;resizeLast=0;marginBottom=0;" parent="1" vertex="1">
          <mxGeometry x="1892" y="1167" width="401" height="142" as="geometry" />
        </mxCell>
        <mxCell id="T8jwcUpZhJJAnp_-eP6j-51" value="&lt;font style=&quot;font-size: 24px;&quot;&gt;&amp;lt;&amp;lt;requirement&amp;gt;&amp;gt;&lt;/font&gt;" style="html=1;align=center;spacing=0;verticalAlign=middle;strokeColor=none;fillColor=none;whiteSpace=wrap;spacingTop=3;" parent="T8jwcUpZhJJAnp_-eP6j-50" vertex="1">
          <mxGeometry width="401" height="31" as="geometry" />
        </mxCell>
        <mxCell id="T8jwcUpZhJJAnp_-eP6j-52" value="&lt;font style=&quot;font-size: 24px;&quot;&gt;Session Termination&lt;/font&gt;" style="html=1;align=center;spacing=0;verticalAlign=middle;strokeColor=none;fillColor=none;whiteSpace=wrap;fontStyle=1" parent="T8jwcUpZhJJAnp_-eP6j-50" vertex="1">
          <mxGeometry y="31" width="401" height="31" as="geometry" />
        </mxCell>
        <mxCell id="T8jwcUpZhJJAnp_-eP6j-53" value="" style="line;strokeWidth=0.25;fillColor=none;align=left;verticalAlign=middle;spacingTop=-1;spacingLeft=3;spacingRight=3;rotatable=0;labelPosition=right;points=[];portConstraint=eastwest;" parent="T8jwcUpZhJJAnp_-eP6j-50" vertex="1">
          <mxGeometry y="62" width="401" height="8" as="geometry" />
        </mxCell>
        <mxCell id="T8jwcUpZhJJAnp_-eP6j-55" value="&lt;font style=&quot;font-size: 24px;&quot;&gt;Id=&quot;R006&quot;&lt;/font&gt;" style="html=1;align=left;spacing=0;verticalAlign=middle;strokeColor=none;fillColor=none;whiteSpace=wrap;spacingLeft=10;" parent="T8jwcUpZhJJAnp_-eP6j-50" vertex="1">
          <mxGeometry y="70" width="401" height="29" as="geometry" />
        </mxCell>
        <mxCell id="T8jwcUpZhJJAnp_-eP6j-54" value="&lt;font style=&quot;font-size: 24px;&quot;&gt;text=&quot;Trigger session termination&quot;&lt;/font&gt;" style="html=1;align=left;spacing=0;verticalAlign=middle;strokeColor=none;fillColor=none;whiteSpace=wrap;spacingLeft=10;" parent="T8jwcUpZhJJAnp_-eP6j-50" vertex="1">
          <mxGeometry y="99" width="401" height="43" as="geometry" />
        </mxCell>
        <mxCell id="T8jwcUpZhJJAnp_-eP6j-58" value="&lt;font style=&quot;font-size: 20px;&quot;&gt;&amp;lt;&amp;lt;depends on&amp;gt;&amp;gt;&lt;/font&gt;" style="edgeStyle=none;html=1;endArrow=open;endSize=12;dashed=1;verticalAlign=bottom;rounded=0;entryX=0.25;entryY=1;entryDx=0;entryDy=0;exitX=0.5;exitY=0;exitDx=0;exitDy=0;" parent="1" source="T8jwcUpZhJJAnp_-eP6j-30" target="T8jwcUpZhJJAnp_-eP6j-19" edge="1">
          <mxGeometry x="-0.1529" width="160" relative="1" as="geometry">
            <mxPoint x="2128" y="813" as="sourcePoint" />
            <mxPoint x="2138.000000000001" y="744" as="targetPoint" />
            <mxPoint y="1" as="offset" />
          </mxGeometry>
        </mxCell>
        <mxCell id="T8jwcUpZhJJAnp_-eP6j-60" value="&lt;font style=&quot;font-size: 20px;&quot;&gt;&amp;lt;&amp;lt;depends on&amp;gt;&amp;gt;&lt;/font&gt;" style="edgeStyle=none;html=1;endArrow=open;endSize=12;dashed=1;verticalAlign=bottom;rounded=0;entryX=0.5;entryY=1;entryDx=0;entryDy=0;exitX=0.5;exitY=0;exitDx=0;exitDy=0;" parent="1" source="T8jwcUpZhJJAnp_-eP6j-37" target="T8jwcUpZhJJAnp_-eP6j-19" edge="1">
          <mxGeometry x="-0.0826" y="9" width="160" relative="1" as="geometry">
            <mxPoint x="2337" y="803" as="sourcePoint" />
            <mxPoint x="2458.999999999999" y="755" as="targetPoint" />
            <mxPoint as="offset" />
          </mxGeometry>
        </mxCell>
        <mxCell id="T8jwcUpZhJJAnp_-eP6j-61" value="&lt;font style=&quot;font-size: 20px;&quot;&gt;&amp;lt;&amp;lt;requires&amp;gt;&amp;gt;&lt;/font&gt;" style="edgeStyle=none;html=1;endArrow=open;endSize=12;dashed=1;verticalAlign=bottom;rounded=0;entryX=0.5;entryY=1;entryDx=0;entryDy=0;exitX=0.5;exitY=0;exitDx=0;exitDy=0;" parent="1" source="T8jwcUpZhJJAnp_-eP6j-44" target="T8jwcUpZhJJAnp_-eP6j-33" edge="1">
          <mxGeometry x="-0.3404" y="-13" width="160" relative="1" as="geometry">
            <mxPoint x="1998" y="1037" as="sourcePoint" />
            <mxPoint x="2058" y="987" as="targetPoint" />
            <mxPoint as="offset" />
          </mxGeometry>
        </mxCell>
        <mxCell id="T8jwcUpZhJJAnp_-eP6j-62" value="&lt;font style=&quot;font-size: 20px;&quot;&gt;&amp;lt;&amp;lt;triggers&amp;gt;&amp;gt;&lt;/font&gt;" style="edgeStyle=none;html=1;endArrow=open;endSize=12;dashed=1;verticalAlign=bottom;rounded=0;entryX=0.5;entryY=1;entryDx=0;entryDy=0;exitX=0.5;exitY=0;exitDx=0;exitDy=0;" parent="1" source="T8jwcUpZhJJAnp_-eP6j-51" target="T8jwcUpZhJJAnp_-eP6j-40" edge="1">
          <mxGeometry x="-0.3447" width="160" relative="1" as="geometry">
            <mxPoint x="2241" y="1117.5" as="sourcePoint" />
            <mxPoint x="2341" y="1027.5" as="targetPoint" />
            <mxPoint as="offset" />
          </mxGeometry>
        </mxCell>
        <mxCell id="T8jwcUpZhJJAnp_-eP6j-63" value="" style="fontStyle=1;align=center;verticalAlign=middle;childLayout=stackLayout;horizontal=1;horizontalStack=0;resizeParent=1;resizeParentMax=0;resizeLast=0;marginBottom=0;" parent="1" vertex="1">
          <mxGeometry x="1444" y="514" width="323" height="211" as="geometry" />
        </mxCell>
        <mxCell id="T8jwcUpZhJJAnp_-eP6j-64" value="&lt;font style=&quot;font-size: 24px;&quot;&gt;&amp;lt;&amp;lt;testCase&amp;gt;&amp;gt;&lt;/font&gt;" style="html=1;align=center;spacing=0;verticalAlign=middle;strokeColor=none;fillColor=none;whiteSpace=wrap;spacingTop=3;" parent="T8jwcUpZhJJAnp_-eP6j-63" vertex="1">
          <mxGeometry width="323" height="31" as="geometry" />
        </mxCell>
        <mxCell id="T8jwcUpZhJJAnp_-eP6j-65" value="&lt;font style=&quot;font-size: 24px;&quot;&gt;Verify Login Error Message&lt;/font&gt;" style="html=1;align=center;spacing=0;verticalAlign=middle;strokeColor=none;fillColor=none;whiteSpace=wrap;fontStyle=1" parent="T8jwcUpZhJJAnp_-eP6j-63" vertex="1">
          <mxGeometry y="31" width="323" height="36" as="geometry" />
        </mxCell>
        <mxCell id="T8jwcUpZhJJAnp_-eP6j-66" value="" style="line;strokeWidth=0.25;fillColor=none;align=left;verticalAlign=middle;spacingTop=-1;spacingLeft=3;spacingRight=3;rotatable=0;labelPosition=right;points=[];portConstraint=eastwest;" parent="T8jwcUpZhJJAnp_-eP6j-63" vertex="1">
          <mxGeometry y="67" width="323" height="8" as="geometry" />
        </mxCell>
        <mxCell id="T8jwcUpZhJJAnp_-eP6j-67" value="&lt;font style=&quot;font-size: 24px;&quot;&gt;Verify that login features displays an error message when the entered credentials are incorrect.&lt;/font&gt;" style="html=1;align=left;spacing=0;verticalAlign=middle;strokeColor=none;fillColor=none;whiteSpace=wrap;spacingLeft=10;" parent="T8jwcUpZhJJAnp_-eP6j-63" vertex="1">
          <mxGeometry y="75" width="323" height="136" as="geometry" />
        </mxCell>
        <mxCell id="T8jwcUpZhJJAnp_-eP6j-70" value="&lt;font style=&quot;font-size: 20px;&quot;&gt;&amp;lt;&amp;lt;verify&amp;gt;&amp;gt;&lt;/font&gt;" style="edgeStyle=none;html=1;endArrow=open;endSize=12;dashed=1;verticalAlign=bottom;rounded=0;exitX=0.5;exitY=1;exitDx=0;exitDy=0;entryX=0;entryY=0;entryDx=0;entryDy=0;" parent="1" source="T8jwcUpZhJJAnp_-eP6j-67" target="T8jwcUpZhJJAnp_-eP6j-34" edge="1">
          <mxGeometry x="0.0264" y="-20" width="160" relative="1" as="geometry">
            <mxPoint x="1880" y="568" as="sourcePoint" />
            <mxPoint x="1960" y="676" as="targetPoint" />
            <mxPoint as="offset" />
          </mxGeometry>
        </mxCell>
        <mxCell id="T8jwcUpZhJJAnp_-eP6j-72" value="" style="fontStyle=1;align=center;verticalAlign=middle;childLayout=stackLayout;horizontal=1;horizontalStack=0;resizeParent=1;resizeParentMax=0;resizeLast=0;marginBottom=0;" parent="1" vertex="1">
          <mxGeometry x="2399" y="847" width="673" height="122" as="geometry" />
        </mxCell>
        <mxCell id="T8jwcUpZhJJAnp_-eP6j-73" value="&lt;font style=&quot;font-size: 24px;&quot;&gt;&amp;lt;&amp;lt;requirement&amp;gt;&amp;gt;&lt;/font&gt;" style="html=1;align=center;spacing=0;verticalAlign=middle;strokeColor=none;fillColor=none;whiteSpace=wrap;spacingTop=3;" parent="T8jwcUpZhJJAnp_-eP6j-72" vertex="1">
          <mxGeometry width="673" height="28" as="geometry" />
        </mxCell>
        <mxCell id="T8jwcUpZhJJAnp_-eP6j-74" value="&lt;font style=&quot;font-size: 24px;&quot;&gt;The user must be able to manage threads effectively&amp;nbsp;&lt;/font&gt;" style="html=1;align=center;spacing=0;verticalAlign=middle;strokeColor=none;fillColor=none;whiteSpace=wrap;fontStyle=1" parent="T8jwcUpZhJJAnp_-eP6j-72" vertex="1">
          <mxGeometry y="28" width="673" height="30" as="geometry" />
        </mxCell>
        <mxCell id="T8jwcUpZhJJAnp_-eP6j-75" value="" style="line;strokeWidth=0.25;fillColor=none;align=left;verticalAlign=middle;spacingTop=-1;spacingLeft=3;spacingRight=3;rotatable=0;labelPosition=right;points=[];portConstraint=eastwest;" parent="T8jwcUpZhJJAnp_-eP6j-72" vertex="1">
          <mxGeometry y="58" width="673" height="8" as="geometry" />
        </mxCell>
        <mxCell id="T8jwcUpZhJJAnp_-eP6j-77" value="&lt;font style=&quot;font-size: 24px;&quot;&gt;Id=&quot;R007&quot;&lt;/font&gt;" style="html=1;align=left;spacing=0;verticalAlign=middle;strokeColor=none;fillColor=none;whiteSpace=wrap;spacingLeft=10;" parent="T8jwcUpZhJJAnp_-eP6j-72" vertex="1">
          <mxGeometry y="66" width="673" height="24" as="geometry" />
        </mxCell>
        <mxCell id="T8jwcUpZhJJAnp_-eP6j-76" value="&lt;font style=&quot;font-size: 24px;&quot;&gt;text=&quot;Threads management efficiently&quot;&lt;/font&gt;" style="html=1;align=left;spacing=0;verticalAlign=middle;strokeColor=none;fillColor=none;whiteSpace=wrap;spacingLeft=10;" parent="T8jwcUpZhJJAnp_-eP6j-72" vertex="1">
          <mxGeometry y="90" width="673" height="32" as="geometry" />
        </mxCell>
        <mxCell id="T8jwcUpZhJJAnp_-eP6j-80" value="&lt;font style=&quot;font-size: 20px;&quot;&gt;&amp;lt;&amp;lt;depends on&amp;gt;&amp;gt;&lt;/font&gt;" style="edgeStyle=none;html=1;endArrow=open;endSize=12;dashed=1;verticalAlign=bottom;rounded=0;entryX=0.75;entryY=1;entryDx=0;entryDy=0;exitX=0;exitY=0;exitDx=0;exitDy=0;" parent="1" source="T8jwcUpZhJJAnp_-eP6j-77" target="T8jwcUpZhJJAnp_-eP6j-19" edge="1">
          <mxGeometry x="0.0062" width="160" relative="1" as="geometry">
            <mxPoint x="2707" y="560" as="sourcePoint" />
            <mxPoint x="2867" y="560" as="targetPoint" />
            <mxPoint as="offset" />
          </mxGeometry>
        </mxCell>
        <mxCell id="T8jwcUpZhJJAnp_-eP6j-81" value="" style="fontStyle=1;align=center;verticalAlign=middle;childLayout=stackLayout;horizontal=1;horizontalStack=0;resizeParent=1;resizeParentMax=0;resizeLast=0;marginBottom=0;" parent="1" vertex="1">
          <mxGeometry x="2427" y="1350" width="322" height="120" as="geometry" />
        </mxCell>
        <mxCell id="T8jwcUpZhJJAnp_-eP6j-82" value="&lt;font style=&quot;font-size: 24px;&quot;&gt;&amp;lt;&amp;lt;requirement&amp;gt;&amp;gt;&lt;/font&gt;" style="html=1;align=center;spacing=0;verticalAlign=middle;strokeColor=none;fillColor=none;whiteSpace=wrap;spacingTop=3;" parent="T8jwcUpZhJJAnp_-eP6j-81" vertex="1">
          <mxGeometry width="322" height="27" as="geometry" />
        </mxCell>
        <mxCell id="T8jwcUpZhJJAnp_-eP6j-83" value="&lt;font style=&quot;font-size: 24px;&quot;&gt;View Threads&lt;/font&gt;" style="html=1;align=center;spacing=0;verticalAlign=middle;strokeColor=none;fillColor=none;whiteSpace=wrap;fontStyle=1" parent="T8jwcUpZhJJAnp_-eP6j-81" vertex="1">
          <mxGeometry y="27" width="322" height="26" as="geometry" />
        </mxCell>
        <mxCell id="T8jwcUpZhJJAnp_-eP6j-84" value="" style="line;strokeWidth=0.25;fillColor=none;align=left;verticalAlign=middle;spacingTop=-1;spacingLeft=3;spacingRight=3;rotatable=0;labelPosition=right;points=[];portConstraint=eastwest;" parent="T8jwcUpZhJJAnp_-eP6j-81" vertex="1">
          <mxGeometry y="53" width="322" height="8" as="geometry" />
        </mxCell>
        <mxCell id="T8jwcUpZhJJAnp_-eP6j-86" value="&lt;font style=&quot;font-size: 24px;&quot;&gt;Id=&quot;R009&quot;&lt;/font&gt;" style="html=1;align=left;spacing=0;verticalAlign=middle;strokeColor=none;fillColor=none;whiteSpace=wrap;spacingLeft=10;" parent="T8jwcUpZhJJAnp_-eP6j-81" vertex="1">
          <mxGeometry y="61" width="322" height="26" as="geometry" />
        </mxCell>
        <mxCell id="T8jwcUpZhJJAnp_-eP6j-85" value="&lt;font style=&quot;font-size: 24px;&quot;&gt;text=&quot;Display threads list&quot;&lt;/font&gt;" style="html=1;align=left;spacing=0;verticalAlign=middle;strokeColor=none;fillColor=none;whiteSpace=wrap;spacingLeft=10;" parent="T8jwcUpZhJJAnp_-eP6j-81" vertex="1">
          <mxGeometry y="87" width="322" height="33" as="geometry" />
        </mxCell>
        <mxCell id="T8jwcUpZhJJAnp_-eP6j-88" value="&lt;font style=&quot;font-size: 20px;&quot;&gt;&amp;lt;&amp;lt;depends on&amp;gt;&amp;gt;&lt;/font&gt;" style="edgeStyle=none;html=1;endArrow=open;endSize=12;dashed=1;verticalAlign=bottom;rounded=0;entryX=0.5;entryY=1;entryDx=0;entryDy=0;exitX=0.5;exitY=0;exitDx=0;exitDy=0;" parent="1" source="T8jwcUpZhJJAnp_-eP6j-82" target="DJF4Qfqb1N06WHrdRiom-6" edge="1">
          <mxGeometry x="-0.3985" y="4" width="160" relative="1" as="geometry">
            <mxPoint x="2721" y="1018" as="sourcePoint" />
            <mxPoint x="2859" y="1148" as="targetPoint" />
            <mxPoint as="offset" />
          </mxGeometry>
        </mxCell>
        <mxCell id="T8jwcUpZhJJAnp_-eP6j-89" value="" style="fontStyle=1;align=center;verticalAlign=middle;childLayout=stackLayout;horizontal=1;horizontalStack=0;resizeParent=1;resizeParentMax=0;resizeLast=0;marginBottom=0;" parent="1" vertex="1">
          <mxGeometry x="2315" y="1633" width="420" height="117" as="geometry" />
        </mxCell>
        <mxCell id="T8jwcUpZhJJAnp_-eP6j-90" value="&lt;font style=&quot;font-size: 24px;&quot;&gt;&amp;lt;&amp;lt;requirement&amp;gt;&amp;gt;&lt;/font&gt;" style="html=1;align=center;spacing=0;verticalAlign=middle;strokeColor=none;fillColor=none;whiteSpace=wrap;spacingTop=3;" parent="T8jwcUpZhJJAnp_-eP6j-89" vertex="1">
          <mxGeometry width="420" height="25" as="geometry" />
        </mxCell>
        <mxCell id="T8jwcUpZhJJAnp_-eP6j-91" value="&lt;font style=&quot;font-size: 24px;&quot;&gt;Delete Any Threads&lt;/font&gt;" style="html=1;align=center;spacing=0;verticalAlign=middle;strokeColor=none;fillColor=none;whiteSpace=wrap;fontStyle=1" parent="T8jwcUpZhJJAnp_-eP6j-89" vertex="1">
          <mxGeometry y="25" width="420" height="30" as="geometry" />
        </mxCell>
        <mxCell id="T8jwcUpZhJJAnp_-eP6j-92" value="" style="line;strokeWidth=0.25;fillColor=none;align=left;verticalAlign=middle;spacingTop=-1;spacingLeft=3;spacingRight=3;rotatable=0;labelPosition=right;points=[];portConstraint=eastwest;" parent="T8jwcUpZhJJAnp_-eP6j-89" vertex="1">
          <mxGeometry y="55" width="420" height="8" as="geometry" />
        </mxCell>
        <mxCell id="T8jwcUpZhJJAnp_-eP6j-94" value="&lt;font style=&quot;font-size: 24px;&quot;&gt;Id=&quot;R011&quot;&lt;/font&gt;" style="html=1;align=left;spacing=0;verticalAlign=middle;strokeColor=none;fillColor=none;whiteSpace=wrap;spacingLeft=10;" parent="T8jwcUpZhJJAnp_-eP6j-89" vertex="1">
          <mxGeometry y="63" width="420" height="24" as="geometry" />
        </mxCell>
        <mxCell id="T8jwcUpZhJJAnp_-eP6j-93" value="&lt;font style=&quot;font-size: 24px;&quot;&gt;text=&quot;Admins can delete any threads&quot;&lt;/font&gt;" style="html=1;align=left;spacing=0;verticalAlign=middle;strokeColor=none;fillColor=none;whiteSpace=wrap;spacingLeft=10;" parent="T8jwcUpZhJJAnp_-eP6j-89" vertex="1">
          <mxGeometry y="87" width="420" height="30" as="geometry" />
        </mxCell>
        <mxCell id="T8jwcUpZhJJAnp_-eP6j-96" value="&lt;font style=&quot;font-size: 20px;&quot;&gt;&amp;lt;&amp;lt;removes&amp;gt;&amp;gt;&lt;/font&gt;" style="edgeStyle=none;html=1;endArrow=open;endSize=12;dashed=1;verticalAlign=bottom;rounded=0;entryX=0.25;entryY=1;entryDx=0;entryDy=0;exitX=0.5;exitY=0;exitDx=0;exitDy=0;" parent="1" source="T8jwcUpZhJJAnp_-eP6j-90" target="T8jwcUpZhJJAnp_-eP6j-85" edge="1">
          <mxGeometry x="-0.2578" y="3" width="160" relative="1" as="geometry">
            <mxPoint x="2330" y="1513" as="sourcePoint" />
            <mxPoint x="2530.500000000002" y="1643.0000000000002" as="targetPoint" />
            <mxPoint as="offset" />
          </mxGeometry>
        </mxCell>
        <mxCell id="T8jwcUpZhJJAnp_-eP6j-97" value="" style="fontStyle=1;align=center;verticalAlign=middle;childLayout=stackLayout;horizontal=1;horizontalStack=0;resizeParent=1;resizeParentMax=0;resizeLast=0;marginBottom=0;" parent="1" vertex="1">
          <mxGeometry x="2757" y="1723" width="310" height="125" as="geometry" />
        </mxCell>
        <mxCell id="T8jwcUpZhJJAnp_-eP6j-98" value="&lt;font style=&quot;font-size: 24px;&quot;&gt;&amp;lt;&amp;lt;requirement&amp;gt;&amp;gt;&lt;/font&gt;" style="html=1;align=center;spacing=0;verticalAlign=middle;strokeColor=none;fillColor=none;whiteSpace=wrap;spacingTop=3;" parent="T8jwcUpZhJJAnp_-eP6j-97" vertex="1">
          <mxGeometry width="310" height="27" as="geometry" />
        </mxCell>
        <mxCell id="T8jwcUpZhJJAnp_-eP6j-99" value="&lt;font style=&quot;font-size: 24px;&quot;&gt;Update Threads&lt;/font&gt;" style="html=1;align=center;spacing=0;verticalAlign=middle;strokeColor=none;fillColor=none;whiteSpace=wrap;fontStyle=1" parent="T8jwcUpZhJJAnp_-eP6j-97" vertex="1">
          <mxGeometry y="27" width="310" height="29" as="geometry" />
        </mxCell>
        <mxCell id="T8jwcUpZhJJAnp_-eP6j-100" value="" style="line;strokeWidth=0.25;fillColor=none;align=left;verticalAlign=middle;spacingTop=-1;spacingLeft=3;spacingRight=3;rotatable=0;labelPosition=right;points=[];portConstraint=eastwest;" parent="T8jwcUpZhJJAnp_-eP6j-97" vertex="1">
          <mxGeometry y="56" width="310" height="8" as="geometry" />
        </mxCell>
        <mxCell id="T8jwcUpZhJJAnp_-eP6j-102" value="&lt;font style=&quot;font-size: 24px;&quot;&gt;Id=&quot;R010&quot;&lt;/font&gt;" style="html=1;align=left;spacing=0;verticalAlign=middle;strokeColor=none;fillColor=none;whiteSpace=wrap;spacingLeft=10;" parent="T8jwcUpZhJJAnp_-eP6j-97" vertex="1">
          <mxGeometry y="64" width="310" height="23" as="geometry" />
        </mxCell>
        <mxCell id="T8jwcUpZhJJAnp_-eP6j-101" value="&lt;font style=&quot;font-size: 24px;&quot;&gt;text=&quot;Modify existing topics&quot;&lt;/font&gt;" style="html=1;align=left;spacing=0;verticalAlign=middle;strokeColor=none;fillColor=none;whiteSpace=wrap;spacingLeft=10;" parent="T8jwcUpZhJJAnp_-eP6j-97" vertex="1">
          <mxGeometry y="87" width="310" height="38" as="geometry" />
        </mxCell>
        <mxCell id="T8jwcUpZhJJAnp_-eP6j-104" value="&lt;font style=&quot;font-size: 20px;&quot;&gt;&amp;lt;&amp;lt;Modifies&amp;gt;&amp;gt;&lt;/font&gt;" style="edgeStyle=none;html=1;endArrow=open;endSize=12;dashed=1;verticalAlign=bottom;rounded=0;entryX=0.75;entryY=1;entryDx=0;entryDy=0;exitX=0.5;exitY=0;exitDx=0;exitDy=0;" parent="1" source="T8jwcUpZhJJAnp_-eP6j-98" target="T8jwcUpZhJJAnp_-eP6j-85" edge="1">
          <mxGeometry x="-0.2268" y="-1" width="160" relative="1" as="geometry">
            <mxPoint x="2510" y="1353" as="sourcePoint" />
            <mxPoint x="2691.4999999999986" y="1643.0000000000002" as="targetPoint" />
            <mxPoint as="offset" />
          </mxGeometry>
        </mxCell>
        <mxCell id="t3yZGe3AxtrRyXjMGakX-2" value="&lt;font style=&quot;font-size: 20px;&quot;&gt;Represent the users that will be&amp;nbsp;&lt;/font&gt;&lt;div&gt;&lt;font style=&quot;font-size: 20px;&quot;&gt;interacting with the discussion board&lt;/font&gt;&lt;/div&gt;" style="shape=umlActor;html=1;verticalLabelPosition=bottom;verticalAlign=top;align=center;" parent="1" vertex="1">
          <mxGeometry x="980" y="940" width="71" height="147" as="geometry" />
        </mxCell>
        <mxCell id="t3yZGe3AxtrRyXjMGakX-3" value="&lt;font style=&quot;font-size: 20px;&quot;&gt;&amp;lt;&amp;lt;traces&amp;gt;&amp;gt;&lt;/font&gt;" style="edgeStyle=none;html=1;startArrow=open;endArrow=none;startSize=12;verticalAlign=bottom;dashed=1;labelBackgroundColor=none;rounded=0;entryX=0;entryY=0.5;entryDx=0;entryDy=0;entryPerimeter=0;" parent="1" source="6kzEXoYTPUvy7oI2-04S-18" target="T8jwcUpZhJJAnp_-eP6j-1" edge="1">
          <mxGeometry width="160" relative="1" as="geometry">
            <mxPoint x="1341" y="850" as="sourcePoint" />
            <mxPoint x="1522" y="920.4870000000001" as="targetPoint" />
          </mxGeometry>
        </mxCell>
        <mxCell id="t3yZGe3AxtrRyXjMGakX-4" value="" style="fontStyle=1;align=center;verticalAlign=middle;childLayout=stackLayout;horizontal=1;horizontalStack=0;resizeParent=1;resizeParentMax=0;resizeLast=0;marginBottom=0;" parent="1" vertex="1">
          <mxGeometry x="3115" y="768" width="609" height="123" as="geometry" />
        </mxCell>
        <mxCell id="t3yZGe3AxtrRyXjMGakX-5" value="&lt;font style=&quot;font-size: 24px;&quot;&gt;&amp;lt;&amp;lt;requirement&amp;gt;&amp;gt;&lt;/font&gt;" style="html=1;align=center;spacing=0;verticalAlign=middle;strokeColor=none;fillColor=none;whiteSpace=wrap;spacingTop=3;" parent="t3yZGe3AxtrRyXjMGakX-4" vertex="1">
          <mxGeometry width="609" height="28" as="geometry" />
        </mxCell>
        <mxCell id="t3yZGe3AxtrRyXjMGakX-6" value="&lt;font style=&quot;font-size: 24px;&quot;&gt;The user must be able to manage replies effectively&amp;nbsp;&lt;/font&gt;" style="html=1;align=center;spacing=0;verticalAlign=middle;strokeColor=none;fillColor=none;whiteSpace=wrap;fontStyle=1" parent="t3yZGe3AxtrRyXjMGakX-4" vertex="1">
          <mxGeometry y="28" width="609" height="32" as="geometry" />
        </mxCell>
        <mxCell id="t3yZGe3AxtrRyXjMGakX-7" value="" style="line;strokeWidth=0.25;fillColor=none;align=left;verticalAlign=middle;spacingTop=-1;spacingLeft=3;spacingRight=3;rotatable=0;labelPosition=right;points=[];portConstraint=eastwest;" parent="t3yZGe3AxtrRyXjMGakX-4" vertex="1">
          <mxGeometry y="60" width="609" height="8" as="geometry" />
        </mxCell>
        <mxCell id="t3yZGe3AxtrRyXjMGakX-9" value="&lt;font style=&quot;font-size: 24px;&quot;&gt;Id=&quot;R012&quot;&lt;/font&gt;" style="html=1;align=left;spacing=0;verticalAlign=middle;strokeColor=none;fillColor=none;whiteSpace=wrap;spacingLeft=10;" parent="t3yZGe3AxtrRyXjMGakX-4" vertex="1">
          <mxGeometry y="68" width="609" height="24" as="geometry" />
        </mxCell>
        <mxCell id="t3yZGe3AxtrRyXjMGakX-8" value="&lt;font style=&quot;font-size: 24px;&quot;&gt;text=&quot;Replies management efficiently&quot;&lt;/font&gt;" style="html=1;align=left;spacing=0;verticalAlign=middle;strokeColor=none;fillColor=none;whiteSpace=wrap;spacingLeft=10;" parent="t3yZGe3AxtrRyXjMGakX-4" vertex="1">
          <mxGeometry y="92" width="609" height="31" as="geometry" />
        </mxCell>
        <mxCell id="t3yZGe3AxtrRyXjMGakX-11" value="" style="fontStyle=1;align=center;verticalAlign=middle;childLayout=stackLayout;horizontal=1;horizontalStack=0;resizeParent=1;resizeParentMax=0;resizeLast=0;marginBottom=0;" parent="1" vertex="1">
          <mxGeometry x="3174.75" y="1290" width="317.5" height="120" as="geometry" />
        </mxCell>
        <mxCell id="t3yZGe3AxtrRyXjMGakX-12" value="&lt;font style=&quot;font-size: 24px;&quot;&gt;&amp;lt;&amp;lt;requirement&amp;gt;&amp;gt;&lt;/font&gt;" style="html=1;align=center;spacing=0;verticalAlign=middle;strokeColor=none;fillColor=none;whiteSpace=wrap;spacingTop=3;" parent="t3yZGe3AxtrRyXjMGakX-11" vertex="1">
          <mxGeometry width="317.5" height="26" as="geometry" />
        </mxCell>
        <mxCell id="t3yZGe3AxtrRyXjMGakX-13" value="&lt;font style=&quot;font-size: 24px;&quot;&gt;View Replies&lt;/font&gt;" style="html=1;align=center;spacing=0;verticalAlign=middle;strokeColor=none;fillColor=none;whiteSpace=wrap;fontStyle=1" parent="t3yZGe3AxtrRyXjMGakX-11" vertex="1">
          <mxGeometry y="26" width="317.5" height="29" as="geometry" />
        </mxCell>
        <mxCell id="t3yZGe3AxtrRyXjMGakX-14" value="" style="line;strokeWidth=0.25;fillColor=none;align=left;verticalAlign=middle;spacingTop=-1;spacingLeft=3;spacingRight=3;rotatable=0;labelPosition=right;points=[];portConstraint=eastwest;" parent="t3yZGe3AxtrRyXjMGakX-11" vertex="1">
          <mxGeometry y="55" width="317.5" height="8" as="geometry" />
        </mxCell>
        <mxCell id="t3yZGe3AxtrRyXjMGakX-16" value="&lt;font style=&quot;font-size: 24px;&quot;&gt;Id=&quot;R014&quot;&lt;/font&gt;" style="html=1;align=left;spacing=0;verticalAlign=middle;strokeColor=none;fillColor=none;whiteSpace=wrap;spacingLeft=10;" parent="t3yZGe3AxtrRyXjMGakX-11" vertex="1">
          <mxGeometry y="63" width="317.5" height="23" as="geometry" />
        </mxCell>
        <mxCell id="t3yZGe3AxtrRyXjMGakX-15" value="&lt;font style=&quot;font-size: 24px;&quot;&gt;text=&quot;Display reply list&quot;&lt;/font&gt;" style="html=1;align=left;spacing=0;verticalAlign=middle;strokeColor=none;fillColor=none;whiteSpace=wrap;spacingLeft=10;" parent="t3yZGe3AxtrRyXjMGakX-11" vertex="1">
          <mxGeometry y="86" width="317.5" height="34" as="geometry" />
        </mxCell>
        <mxCell id="t3yZGe3AxtrRyXjMGakX-18" value="" style="fontStyle=1;align=center;verticalAlign=middle;childLayout=stackLayout;horizontal=1;horizontalStack=0;resizeParent=1;resizeParentMax=0;resizeLast=0;marginBottom=0;" parent="1" vertex="1">
          <mxGeometry x="3131" y="1511" width="405" height="108" as="geometry" />
        </mxCell>
        <mxCell id="t3yZGe3AxtrRyXjMGakX-19" value="&lt;font style=&quot;font-size: 24px;&quot;&gt;&amp;lt;&amp;lt;requirement&amp;gt;&amp;gt;&lt;/font&gt;" style="html=1;align=center;spacing=0;verticalAlign=middle;strokeColor=none;fillColor=none;whiteSpace=wrap;spacingTop=3;" parent="t3yZGe3AxtrRyXjMGakX-18" vertex="1">
          <mxGeometry width="405" height="24" as="geometry" />
        </mxCell>
        <mxCell id="t3yZGe3AxtrRyXjMGakX-20" value="&lt;font style=&quot;font-size: 24px;&quot;&gt;Delete Any Replies&lt;/font&gt;" style="html=1;align=center;spacing=0;verticalAlign=middle;strokeColor=none;fillColor=none;whiteSpace=wrap;fontStyle=1" parent="t3yZGe3AxtrRyXjMGakX-18" vertex="1">
          <mxGeometry y="24" width="405" height="24" as="geometry" />
        </mxCell>
        <mxCell id="t3yZGe3AxtrRyXjMGakX-21" value="" style="line;strokeWidth=0.25;fillColor=none;align=left;verticalAlign=middle;spacingTop=-1;spacingLeft=3;spacingRight=3;rotatable=0;labelPosition=right;points=[];portConstraint=eastwest;" parent="t3yZGe3AxtrRyXjMGakX-18" vertex="1">
          <mxGeometry y="48" width="405" height="8" as="geometry" />
        </mxCell>
        <mxCell id="t3yZGe3AxtrRyXjMGakX-23" value="&lt;font style=&quot;font-size: 24px;&quot;&gt;Id=&quot;R015&quot;&lt;/font&gt;" style="html=1;align=left;spacing=0;verticalAlign=middle;strokeColor=none;fillColor=none;whiteSpace=wrap;spacingLeft=10;" parent="t3yZGe3AxtrRyXjMGakX-18" vertex="1">
          <mxGeometry y="56" width="405" height="21" as="geometry" />
        </mxCell>
        <mxCell id="t3yZGe3AxtrRyXjMGakX-22" value="&lt;font style=&quot;font-size: 24px;&quot;&gt;text=&quot;Admins can delete any replies&quot;&lt;/font&gt;" style="html=1;align=left;spacing=0;verticalAlign=middle;strokeColor=none;fillColor=none;whiteSpace=wrap;spacingLeft=10;" parent="t3yZGe3AxtrRyXjMGakX-18" vertex="1">
          <mxGeometry y="77" width="405" height="31" as="geometry" />
        </mxCell>
        <mxCell id="mo_hGV9PXsMcXNKAS7Ks-1" value="&lt;font style=&quot;font-size: 20px;&quot;&gt;&amp;lt;&amp;lt;removes&amp;gt;&amp;gt;&lt;/font&gt;" style="edgeStyle=none;html=1;endArrow=open;endSize=12;dashed=1;verticalAlign=bottom;rounded=0;entryX=0.5;entryY=1;entryDx=0;entryDy=0;exitX=0.5;exitY=0;exitDx=0;exitDy=0;" parent="1" source="t3yZGe3AxtrRyXjMGakX-19" target="t3yZGe3AxtrRyXjMGakX-15" edge="1">
          <mxGeometry x="-0.4524" width="160" relative="1" as="geometry">
            <mxPoint x="3445" y="1596" as="sourcePoint" />
            <mxPoint x="3445" y="1512.0000000000005" as="targetPoint" />
            <mxPoint as="offset" />
          </mxGeometry>
        </mxCell>
        <mxCell id="mo_hGV9PXsMcXNKAS7Ks-2" value="&lt;font style=&quot;font-size: 20px;&quot;&gt;&amp;lt;&amp;lt;depends on&amp;gt;&amp;gt;&lt;/font&gt;" style="edgeStyle=none;html=1;endArrow=open;endSize=12;dashed=1;verticalAlign=bottom;rounded=0;entryX=0.5;entryY=1;entryDx=0;entryDy=0;exitX=0.5;exitY=0;exitDx=0;exitDy=0;" parent="1" source="t3yZGe3AxtrRyXjMGakX-12" target="DJF4Qfqb1N06WHrdRiom-14" edge="1">
          <mxGeometry x="-0.4848" width="160" relative="1" as="geometry">
            <mxPoint x="3458.54" y="1283" as="sourcePoint" />
            <mxPoint x="3449.75" y="1333" as="targetPoint" />
            <mxPoint as="offset" />
          </mxGeometry>
        </mxCell>
        <mxCell id="DJF4Qfqb1N06WHrdRiom-2" value="" style="fontStyle=1;align=center;verticalAlign=middle;childLayout=stackLayout;horizontal=1;horizontalStack=0;resizeParent=1;resizeParentMax=0;resizeLast=0;marginBottom=0;" parent="1" vertex="1">
          <mxGeometry x="2496" y="1099" width="344" height="122" as="geometry" />
        </mxCell>
        <mxCell id="DJF4Qfqb1N06WHrdRiom-3" value="&lt;font style=&quot;font-size: 24px;&quot;&gt;&amp;lt;&amp;lt;requirement&amp;gt;&amp;gt;&lt;/font&gt;" style="html=1;align=center;spacing=0;verticalAlign=middle;strokeColor=none;fillColor=none;whiteSpace=wrap;spacingTop=3;" parent="DJF4Qfqb1N06WHrdRiom-2" vertex="1">
          <mxGeometry width="344" height="31" as="geometry" />
        </mxCell>
        <mxCell id="6mtvG6rXHDQnUf1-JMBW-3" style="edgeStyle=none;curved=1;rounded=0;orthogonalLoop=1;jettySize=auto;html=1;exitX=0.75;exitY=0;exitDx=0;exitDy=0;fontSize=12;startSize=8;endSize=8;" parent="DJF4Qfqb1N06WHrdRiom-2" source="DJF4Qfqb1N06WHrdRiom-4" target="DJF4Qfqb1N06WHrdRiom-3" edge="1">
          <mxGeometry relative="1" as="geometry" />
        </mxCell>
        <mxCell id="DJF4Qfqb1N06WHrdRiom-4" value="&lt;font style=&quot;font-size: 24px;&quot;&gt;Create Threads&lt;/font&gt;" style="html=1;align=center;spacing=0;verticalAlign=middle;strokeColor=none;fillColor=none;whiteSpace=wrap;fontStyle=1" parent="DJF4Qfqb1N06WHrdRiom-2" vertex="1">
          <mxGeometry y="31" width="344" height="26" as="geometry" />
        </mxCell>
        <mxCell id="DJF4Qfqb1N06WHrdRiom-5" value="" style="line;strokeWidth=0.25;fillColor=none;align=left;verticalAlign=middle;spacingTop=-1;spacingLeft=3;spacingRight=3;rotatable=0;labelPosition=right;points=[];portConstraint=eastwest;" parent="DJF4Qfqb1N06WHrdRiom-2" vertex="1">
          <mxGeometry y="57" width="344" height="8" as="geometry" />
        </mxCell>
        <mxCell id="DJF4Qfqb1N06WHrdRiom-7" value="&lt;font style=&quot;font-size: 24px;&quot;&gt;Id=&quot;R008&quot;&lt;/font&gt;" style="html=1;align=left;spacing=0;verticalAlign=middle;strokeColor=none;fillColor=none;whiteSpace=wrap;spacingLeft=10;" parent="DJF4Qfqb1N06WHrdRiom-2" vertex="1">
          <mxGeometry y="65" width="344" height="25" as="geometry" />
        </mxCell>
        <mxCell id="DJF4Qfqb1N06WHrdRiom-6" value="&lt;font style=&quot;font-size: 24px;&quot;&gt;text=&quot;Create new threads&quot;&lt;/font&gt;" style="html=1;align=left;spacing=0;verticalAlign=middle;strokeColor=none;fillColor=none;whiteSpace=wrap;spacingLeft=10;" parent="DJF4Qfqb1N06WHrdRiom-2" vertex="1">
          <mxGeometry y="90" width="344" height="32" as="geometry" />
        </mxCell>
        <mxCell id="DJF4Qfqb1N06WHrdRiom-9" value="&lt;font style=&quot;font-size: 20px;&quot;&gt;&amp;lt;&amp;lt;refine&amp;gt;&amp;gt;&lt;/font&gt;" style="edgeStyle=none;html=1;endArrow=open;endSize=12;dashed=1;verticalAlign=bottom;rounded=0;entryX=0.5;entryY=1;entryDx=0;entryDy=0;exitX=0.5;exitY=0;exitDx=0;exitDy=0;" parent="1" source="DJF4Qfqb1N06WHrdRiom-3" target="T8jwcUpZhJJAnp_-eP6j-76" edge="1">
          <mxGeometry x="-0.3861" width="160" relative="1" as="geometry">
            <mxPoint x="3141" y="1158" as="sourcePoint" />
            <mxPoint x="2989.5000000000005" y="884" as="targetPoint" />
            <mxPoint as="offset" />
          </mxGeometry>
        </mxCell>
        <mxCell id="DJF4Qfqb1N06WHrdRiom-10" value="" style="fontStyle=1;align=center;verticalAlign=middle;childLayout=stackLayout;horizontal=1;horizontalStack=0;resizeParent=1;resizeParentMax=0;resizeLast=0;marginBottom=0;" parent="1" vertex="1">
          <mxGeometry x="3183" y="1073" width="301" height="113" as="geometry" />
        </mxCell>
        <mxCell id="DJF4Qfqb1N06WHrdRiom-11" value="&lt;font style=&quot;font-size: 24px;&quot;&gt;&amp;lt;&amp;lt;requirement&amp;gt;&amp;gt;&lt;/font&gt;" style="html=1;align=center;spacing=0;verticalAlign=middle;strokeColor=none;fillColor=none;whiteSpace=wrap;spacingTop=3;" parent="DJF4Qfqb1N06WHrdRiom-10" vertex="1">
          <mxGeometry width="301" height="25" as="geometry" />
        </mxCell>
        <mxCell id="DJF4Qfqb1N06WHrdRiom-12" value="&lt;font style=&quot;font-size: 24px;&quot;&gt;Create Replies&lt;/font&gt;" style="html=1;align=center;spacing=0;verticalAlign=middle;strokeColor=none;fillColor=none;whiteSpace=wrap;fontStyle=1" parent="DJF4Qfqb1N06WHrdRiom-10" vertex="1">
          <mxGeometry y="25" width="301" height="26" as="geometry" />
        </mxCell>
        <mxCell id="DJF4Qfqb1N06WHrdRiom-13" value="" style="line;strokeWidth=0.25;fillColor=none;align=left;verticalAlign=middle;spacingTop=-1;spacingLeft=3;spacingRight=3;rotatable=0;labelPosition=right;points=[];portConstraint=eastwest;" parent="DJF4Qfqb1N06WHrdRiom-10" vertex="1">
          <mxGeometry y="51" width="301" height="8" as="geometry" />
        </mxCell>
        <mxCell id="DJF4Qfqb1N06WHrdRiom-15" value="&lt;font style=&quot;font-size: 24px;&quot;&gt;Id=&quot;R013&quot;&lt;/font&gt;" style="html=1;align=left;spacing=0;verticalAlign=middle;strokeColor=none;fillColor=none;whiteSpace=wrap;spacingLeft=10;" parent="DJF4Qfqb1N06WHrdRiom-10" vertex="1">
          <mxGeometry y="59" width="301" height="23" as="geometry" />
        </mxCell>
        <mxCell id="DJF4Qfqb1N06WHrdRiom-14" value="&lt;font style=&quot;font-size: 24px;&quot;&gt;text=&quot;Create new Replies&quot;&lt;/font&gt;" style="html=1;align=left;spacing=0;verticalAlign=middle;strokeColor=none;fillColor=none;whiteSpace=wrap;spacingLeft=10;" parent="DJF4Qfqb1N06WHrdRiom-10" vertex="1">
          <mxGeometry y="82" width="301" height="31" as="geometry" />
        </mxCell>
        <mxCell id="DJF4Qfqb1N06WHrdRiom-18" value="&lt;font style=&quot;font-size: 20px;&quot;&gt;&amp;lt;&amp;lt;refine&amp;gt;&amp;gt;&lt;/font&gt;" style="edgeStyle=none;html=1;endArrow=open;endSize=12;dashed=1;verticalAlign=bottom;rounded=0;exitX=0.5;exitY=0;exitDx=0;exitDy=0;entryX=0.5;entryY=1;entryDx=0;entryDy=0;" parent="1" source="DJF4Qfqb1N06WHrdRiom-11" target="t3yZGe3AxtrRyXjMGakX-8" edge="1">
          <mxGeometry x="-0.3588" width="160" relative="1" as="geometry">
            <mxPoint x="3292" y="542" as="sourcePoint" />
            <mxPoint x="3506" y="533" as="targetPoint" />
            <mxPoint as="offset" />
          </mxGeometry>
        </mxCell>
        <mxCell id="DJF4Qfqb1N06WHrdRiom-19" value="&lt;font style=&quot;font-size: 20px;&quot;&gt;&amp;lt;&amp;lt;depends on&amp;gt;&amp;gt;&lt;/font&gt;" style="edgeStyle=none;html=1;endArrow=open;endSize=12;dashed=1;verticalAlign=bottom;rounded=0;entryX=1;entryY=0;entryDx=0;entryDy=0;exitX=0;exitY=0;exitDx=0;exitDy=0;" parent="1" source="DJF4Qfqb1N06WHrdRiom-15" target="DJF4Qfqb1N06WHrdRiom-7" edge="1">
          <mxGeometry width="160" relative="1" as="geometry">
            <mxPoint x="3247" y="840" as="sourcePoint" />
            <mxPoint x="3407" y="840" as="targetPoint" />
          </mxGeometry>
        </mxCell>
        <mxCell id="Yu3AcDxvJtfnBx_tp0B3-37" value="" style="fontStyle=1;align=center;verticalAlign=middle;childLayout=stackLayout;horizontal=1;horizontalStack=0;resizeParent=1;resizeParentMax=0;resizeLast=0;marginBottom=0;" parent="1" vertex="1">
          <mxGeometry x="1720" y="1459" width="520" height="116" as="geometry" />
        </mxCell>
        <mxCell id="Yu3AcDxvJtfnBx_tp0B3-38" value="&lt;font style=&quot;font-size: 24px;&quot;&gt;&amp;lt;&amp;lt;requirement&amp;gt;&amp;gt;&lt;/font&gt;" style="html=1;align=center;spacing=0;verticalAlign=middle;strokeColor=none;fillColor=none;whiteSpace=wrap;spacingTop=3;" parent="Yu3AcDxvJtfnBx_tp0B3-37" vertex="1">
          <mxGeometry width="520" height="28" as="geometry" />
        </mxCell>
        <mxCell id="Yu3AcDxvJtfnBx_tp0B3-39" value="&lt;font style=&quot;font-size: 24px;&quot;&gt;Threads sorting by time&lt;/font&gt;" style="html=1;align=center;spacing=0;verticalAlign=middle;strokeColor=none;fillColor=none;whiteSpace=wrap;fontStyle=1" parent="Yu3AcDxvJtfnBx_tp0B3-37" vertex="1">
          <mxGeometry y="28" width="520" height="23" as="geometry" />
        </mxCell>
        <mxCell id="Yu3AcDxvJtfnBx_tp0B3-40" value="" style="line;strokeWidth=0.25;fillColor=none;align=left;verticalAlign=middle;spacingTop=-1;spacingLeft=3;spacingRight=3;rotatable=0;labelPosition=right;points=[];portConstraint=eastwest;" parent="Yu3AcDxvJtfnBx_tp0B3-37" vertex="1">
          <mxGeometry y="51" width="520" height="8" as="geometry" />
        </mxCell>
        <mxCell id="Yu3AcDxvJtfnBx_tp0B3-41" value="&lt;font style=&quot;font-size: 24px;&quot;&gt;Id=&quot;R018&quot;&lt;/font&gt;" style="html=1;align=left;spacing=0;verticalAlign=middle;strokeColor=none;fillColor=none;whiteSpace=wrap;spacingLeft=10;" parent="Yu3AcDxvJtfnBx_tp0B3-37" vertex="1">
          <mxGeometry y="59" width="520" height="26" as="geometry" />
        </mxCell>
        <mxCell id="Yu3AcDxvJtfnBx_tp0B3-42" value="&lt;font style=&quot;font-size: 24px;&quot;&gt;text=&quot;Sort threads by creation time&quot;&lt;/font&gt;" style="html=1;align=left;spacing=0;verticalAlign=middle;strokeColor=none;fillColor=none;whiteSpace=wrap;spacingLeft=10;" parent="Yu3AcDxvJtfnBx_tp0B3-37" vertex="1">
          <mxGeometry y="85" width="520" height="31" as="geometry" />
        </mxCell>
        <mxCell id="Yu3AcDxvJtfnBx_tp0B3-43" value="&lt;font style=&quot;font-size: 20px;&quot;&gt;&amp;lt;&amp;lt;depends on&amp;gt;&amp;gt;&lt;/font&gt;" style="edgeStyle=none;html=1;endArrow=open;endSize=12;dashed=1;verticalAlign=bottom;rounded=0;entryX=1;entryY=0;entryDx=0;entryDy=0;exitX=0;exitY=1;exitDx=0;exitDy=0;" parent="1" source="T8jwcUpZhJJAnp_-eP6j-83" target="Yu3AcDxvJtfnBx_tp0B3-41" edge="1">
          <mxGeometry x="0.1245" y="-5" width="160" relative="1" as="geometry">
            <mxPoint x="2299" y="1601" as="sourcePoint" />
            <mxPoint x="2299" y="1335" as="targetPoint" />
            <mxPoint y="-1" as="offset" />
          </mxGeometry>
        </mxCell>
        <mxCell id="6kzEXoYTPUvy7oI2-04S-1" value="" style="fontStyle=1;align=center;verticalAlign=middle;childLayout=stackLayout;horizontal=1;horizontalStack=0;resizeParent=1;resizeParentMax=0;resizeLast=0;marginBottom=0;" parent="1" vertex="1">
          <mxGeometry x="1665" y="1714" width="502" height="117" as="geometry" />
        </mxCell>
        <mxCell id="6kzEXoYTPUvy7oI2-04S-2" value="&lt;font style=&quot;font-size: 24px;&quot;&gt;&amp;lt;&amp;lt;requirement&amp;gt;&amp;gt;&lt;/font&gt;" style="html=1;align=center;spacing=0;verticalAlign=middle;strokeColor=none;fillColor=none;whiteSpace=wrap;spacingTop=3;" parent="6kzEXoYTPUvy7oI2-04S-1" vertex="1">
          <mxGeometry width="502" height="25" as="geometry" />
        </mxCell>
        <mxCell id="6kzEXoYTPUvy7oI2-04S-3" value="&lt;font style=&quot;font-size: 24px;&quot;&gt;Delete Own Threads&lt;/font&gt;" style="html=1;align=center;spacing=0;verticalAlign=middle;strokeColor=none;fillColor=none;whiteSpace=wrap;fontStyle=1" parent="6kzEXoYTPUvy7oI2-04S-1" vertex="1">
          <mxGeometry y="25" width="502" height="30" as="geometry" />
        </mxCell>
        <mxCell id="6kzEXoYTPUvy7oI2-04S-4" value="" style="line;strokeWidth=0.25;fillColor=none;align=left;verticalAlign=middle;spacingTop=-1;spacingLeft=3;spacingRight=3;rotatable=0;labelPosition=right;points=[];portConstraint=eastwest;" parent="6kzEXoYTPUvy7oI2-04S-1" vertex="1">
          <mxGeometry y="55" width="502" height="8" as="geometry" />
        </mxCell>
        <mxCell id="6kzEXoYTPUvy7oI2-04S-5" value="&lt;font style=&quot;font-size: 24px;&quot;&gt;Id=&quot;R017&quot;&lt;/font&gt;" style="html=1;align=left;spacing=0;verticalAlign=middle;strokeColor=none;fillColor=none;whiteSpace=wrap;spacingLeft=10;" parent="6kzEXoYTPUvy7oI2-04S-1" vertex="1">
          <mxGeometry y="63" width="502" height="24" as="geometry" />
        </mxCell>
        <mxCell id="6kzEXoYTPUvy7oI2-04S-6" value="&lt;font style=&quot;font-size: 24px;&quot;&gt;text=&quot;Members can delete their own threads&quot;&lt;/font&gt;" style="html=1;align=left;spacing=0;verticalAlign=middle;strokeColor=none;fillColor=none;whiteSpace=wrap;spacingLeft=10;" parent="6kzEXoYTPUvy7oI2-04S-1" vertex="1">
          <mxGeometry y="87" width="502" height="30" as="geometry" />
        </mxCell>
        <mxCell id="6kzEXoYTPUvy7oI2-04S-8" value="&lt;font style=&quot;font-size: 20px;&quot;&gt;&amp;lt;&amp;lt;extends&lt;/font&gt;&lt;span style=&quot;font-size: 20px; background-color: light-dark(#ffffff, var(--ge-dark-color, #121212)); color: light-dark(rgb(0, 0, 0), rgb(255, 255, 255));&quot;&gt;&amp;gt;&amp;gt;&lt;/span&gt;" style="edgeStyle=none;html=1;endArrow=open;endSize=12;dashed=1;verticalAlign=bottom;rounded=0;entryX=1;entryY=1;entryDx=0;entryDy=0;exitX=0;exitY=1;exitDx=0;exitDy=0;" parent="1" source="T8jwcUpZhJJAnp_-eP6j-91" target="6kzEXoYTPUvy7oI2-04S-3" edge="1">
          <mxGeometry x="-0.0398" y="-1" width="160" relative="1" as="geometry">
            <mxPoint x="2528" y="1916" as="sourcePoint" />
            <mxPoint x="2613" y="1833" as="targetPoint" />
            <mxPoint as="offset" />
          </mxGeometry>
        </mxCell>
        <mxCell id="6kzEXoYTPUvy7oI2-04S-10" value="" style="fontStyle=1;align=center;verticalAlign=middle;childLayout=stackLayout;horizontal=1;horizontalStack=0;resizeParent=1;resizeParentMax=0;resizeLast=0;marginBottom=0;" parent="1" vertex="1">
          <mxGeometry x="3636" y="1641" width="502" height="117" as="geometry" />
        </mxCell>
        <mxCell id="6kzEXoYTPUvy7oI2-04S-11" value="&lt;font style=&quot;font-size: 24px;&quot;&gt;&amp;lt;&amp;lt;requirement&amp;gt;&amp;gt;&lt;/font&gt;" style="html=1;align=center;spacing=0;verticalAlign=middle;strokeColor=none;fillColor=none;whiteSpace=wrap;spacingTop=3;" parent="6kzEXoYTPUvy7oI2-04S-10" vertex="1">
          <mxGeometry width="502" height="25" as="geometry" />
        </mxCell>
        <mxCell id="6kzEXoYTPUvy7oI2-04S-12" value="&lt;font style=&quot;font-size: 24px;&quot;&gt;Delete Own Replies&lt;/font&gt;" style="html=1;align=center;spacing=0;verticalAlign=middle;strokeColor=none;fillColor=none;whiteSpace=wrap;fontStyle=1" parent="6kzEXoYTPUvy7oI2-04S-10" vertex="1">
          <mxGeometry y="25" width="502" height="30" as="geometry" />
        </mxCell>
        <mxCell id="6kzEXoYTPUvy7oI2-04S-13" value="" style="line;strokeWidth=0.25;fillColor=none;align=left;verticalAlign=middle;spacingTop=-1;spacingLeft=3;spacingRight=3;rotatable=0;labelPosition=right;points=[];portConstraint=eastwest;" parent="6kzEXoYTPUvy7oI2-04S-10" vertex="1">
          <mxGeometry y="55" width="502" height="8" as="geometry" />
        </mxCell>
        <mxCell id="6kzEXoYTPUvy7oI2-04S-14" value="&lt;font style=&quot;font-size: 24px;&quot;&gt;Id=&quot;R016&quot;&lt;/font&gt;" style="html=1;align=left;spacing=0;verticalAlign=middle;strokeColor=none;fillColor=none;whiteSpace=wrap;spacingLeft=10;" parent="6kzEXoYTPUvy7oI2-04S-10" vertex="1">
          <mxGeometry y="63" width="502" height="24" as="geometry" />
        </mxCell>
        <mxCell id="6kzEXoYTPUvy7oI2-04S-15" value="&lt;font style=&quot;font-size: 24px;&quot;&gt;text=&quot;Members can delete their own replies&quot;&lt;/font&gt;" style="html=1;align=left;spacing=0;verticalAlign=middle;strokeColor=none;fillColor=none;whiteSpace=wrap;spacingLeft=10;" parent="6kzEXoYTPUvy7oI2-04S-10" vertex="1">
          <mxGeometry y="87" width="502" height="30" as="geometry" />
        </mxCell>
        <mxCell id="6kzEXoYTPUvy7oI2-04S-16" value="&lt;font style=&quot;font-size: 20px;&quot;&gt;&amp;lt;&amp;lt;extends&lt;/font&gt;&lt;span style=&quot;font-size: 20px; background-color: light-dark(#ffffff, var(--ge-dark-color, #121212)); color: light-dark(rgb(0, 0, 0), rgb(255, 255, 255));&quot;&gt;&amp;gt;&amp;gt;&lt;/span&gt;" style="edgeStyle=none;html=1;endArrow=open;endSize=12;dashed=1;verticalAlign=bottom;rounded=0;exitX=1;exitY=0;exitDx=0;exitDy=0;entryX=0;entryY=0;entryDx=0;entryDy=0;" parent="1" source="t3yZGe3AxtrRyXjMGakX-23" target="6kzEXoYTPUvy7oI2-04S-14" edge="1">
          <mxGeometry x="0.0634" y="-14" width="160" relative="1" as="geometry">
            <mxPoint x="4000" y="1708.7500000000005" as="sourcePoint" />
            <mxPoint x="3848" y="1723" as="targetPoint" />
            <mxPoint as="offset" />
          </mxGeometry>
        </mxCell>
        <mxCell id="6kzEXoYTPUvy7oI2-04S-17" value="&lt;font style=&quot;font-size: 20px;&quot;&gt;&amp;lt;&amp;lt;depends on&amp;gt;&amp;gt;&lt;/font&gt;" style="edgeStyle=none;html=1;endArrow=open;endSize=12;dashed=1;verticalAlign=bottom;rounded=0;entryX=1;entryY=0.75;entryDx=0;entryDy=0;exitX=0;exitY=1;exitDx=0;exitDy=0;" parent="1" source="t3yZGe3AxtrRyXjMGakX-6" target="T8jwcUpZhJJAnp_-eP6j-20" edge="1">
          <mxGeometry x="0.0062" width="160" relative="1" as="geometry">
            <mxPoint x="3042" y="691" as="sourcePoint" />
            <mxPoint x="2818" y="530" as="targetPoint" />
            <mxPoint as="offset" />
          </mxGeometry>
        </mxCell>
        <mxCell id="6kzEXoYTPUvy7oI2-04S-18" value="&lt;span style=&quot;font-size: 20px;&quot;&gt;Admin&lt;/span&gt;" style="shape=umlActor;html=1;verticalLabelPosition=bottom;verticalAlign=top;align=center;" parent="1" vertex="1">
          <mxGeometry x="1221" y="790" width="71" height="147" as="geometry" />
        </mxCell>
        <mxCell id="6kzEXoYTPUvy7oI2-04S-19" value="&lt;span style=&quot;font-size: 20px;&quot;&gt;Member&lt;/span&gt;" style="shape=umlActor;html=1;verticalLabelPosition=bottom;verticalAlign=top;align=center;" parent="1" vertex="1">
          <mxGeometry x="1221" y="1070" width="71" height="147" as="geometry" />
        </mxCell>
        <mxCell id="6kzEXoYTPUvy7oI2-04S-22" value="&lt;font style=&quot;font-size: 20px;&quot;&gt;&amp;lt;&amp;lt;traces&amp;gt;&amp;gt;&lt;/font&gt;" style="edgeStyle=none;html=1;startArrow=open;endArrow=none;startSize=12;verticalAlign=bottom;dashed=1;labelBackgroundColor=none;rounded=0;entryX=0;entryY=0.558;entryDx=0;entryDy=0;entryPerimeter=0;" parent="1" target="T8jwcUpZhJJAnp_-eP6j-1" edge="1">
          <mxGeometry width="160" relative="1" as="geometry">
            <mxPoint x="1300" y="1150" as="sourcePoint" />
            <mxPoint x="1522" y="1074.482" as="targetPoint" />
          </mxGeometry>
        </mxCell>
        <mxCell id="6kzEXoYTPUvy7oI2-04S-23" value="&lt;font style=&quot;font-size: 20px;&quot;&gt;&amp;lt;&amp;lt;refine&amp;gt;&amp;gt;&lt;/font&gt;" style="edgeStyle=none;html=1;startArrow=open;endArrow=none;startSize=12;verticalAlign=bottom;dashed=1;labelBackgroundColor=none;rounded=0;" parent="1" edge="1">
          <mxGeometry x="0.1223" y="6" width="160" relative="1" as="geometry">
            <mxPoint x="1214" y="851" as="sourcePoint" />
            <mxPoint x="1083" y="992" as="targetPoint" />
            <mxPoint as="offset" />
          </mxGeometry>
        </mxCell>
        <mxCell id="6kzEXoYTPUvy7oI2-04S-24" value="&lt;font style=&quot;font-size: 20px;&quot;&gt;&amp;lt;&amp;lt;refine&amp;gt;&amp;gt;&lt;/font&gt;" style="edgeStyle=none;html=1;startArrow=open;endArrow=none;startSize=12;verticalAlign=bottom;dashed=1;labelBackgroundColor=none;rounded=0;" parent="1" edge="1">
          <mxGeometry x="-0.0973" y="-10" width="160" relative="1" as="geometry">
            <mxPoint x="1216" y="1141" as="sourcePoint" />
            <mxPoint x="1079" y="1036" as="targetPoint" />
            <mxPoint as="offset" />
          </mxGeometry>
        </mxCell>
        <mxCell id="wmWImyN5bGgDVzuGGvVu-2" value="" style="fontStyle=1;align=center;verticalAlign=middle;childLayout=stackLayout;horizontal=1;horizontalStack=0;resizeParent=1;resizeParentMax=0;resizeLast=0;marginBottom=0;" vertex="1" parent="1">
          <mxGeometry x="3506" y="580" width="609" height="123" as="geometry" />
        </mxCell>
        <mxCell id="wmWImyN5bGgDVzuGGvVu-3" value="&lt;font style=&quot;font-size: 24px;&quot;&gt;&amp;lt;&amp;lt;requirement&amp;gt;&amp;gt;&lt;/font&gt;" style="html=1;align=center;spacing=0;verticalAlign=middle;strokeColor=none;fillColor=none;whiteSpace=wrap;spacingTop=3;" vertex="1" parent="wmWImyN5bGgDVzuGGvVu-2">
          <mxGeometry width="609" height="28" as="geometry" />
        </mxCell>
        <mxCell id="wmWImyN5bGgDVzuGGvVu-4" value="&lt;font style=&quot;font-size: 24px;&quot;&gt;The user must be able to manage profile effectively&amp;nbsp;&lt;/font&gt;" style="html=1;align=center;spacing=0;verticalAlign=middle;strokeColor=none;fillColor=none;whiteSpace=wrap;fontStyle=1" vertex="1" parent="wmWImyN5bGgDVzuGGvVu-2">
          <mxGeometry y="28" width="609" height="32" as="geometry" />
        </mxCell>
        <mxCell id="wmWImyN5bGgDVzuGGvVu-5" value="" style="line;strokeWidth=0.25;fillColor=none;align=left;verticalAlign=middle;spacingTop=-1;spacingLeft=3;spacingRight=3;rotatable=0;labelPosition=right;points=[];portConstraint=eastwest;" vertex="1" parent="wmWImyN5bGgDVzuGGvVu-2">
          <mxGeometry y="60" width="609" height="8" as="geometry" />
        </mxCell>
        <mxCell id="wmWImyN5bGgDVzuGGvVu-6" value="&lt;font style=&quot;font-size: 24px;&quot;&gt;Id=&quot;R019&quot;&lt;/font&gt;" style="html=1;align=left;spacing=0;verticalAlign=middle;strokeColor=none;fillColor=none;whiteSpace=wrap;spacingLeft=10;" vertex="1" parent="wmWImyN5bGgDVzuGGvVu-2">
          <mxGeometry y="68" width="609" height="24" as="geometry" />
        </mxCell>
        <mxCell id="wmWImyN5bGgDVzuGGvVu-7" value="&lt;font style=&quot;font-size: 24px;&quot;&gt;text=&quot;Profile management efficiently&quot;&lt;/font&gt;" style="html=1;align=left;spacing=0;verticalAlign=middle;strokeColor=none;fillColor=none;whiteSpace=wrap;spacingLeft=10;" vertex="1" parent="wmWImyN5bGgDVzuGGvVu-2">
          <mxGeometry y="92" width="609" height="31" as="geometry" />
        </mxCell>
        <mxCell id="wmWImyN5bGgDVzuGGvVu-8" value="" style="fontStyle=1;align=center;verticalAlign=middle;childLayout=stackLayout;horizontal=1;horizontalStack=0;resizeParent=1;resizeParentMax=0;resizeLast=0;marginBottom=0;" vertex="1" parent="1">
          <mxGeometry x="3804" y="879" width="317.5" height="120" as="geometry" />
        </mxCell>
        <mxCell id="wmWImyN5bGgDVzuGGvVu-9" value="&lt;font style=&quot;font-size: 24px;&quot;&gt;&amp;lt;&amp;lt;requirement&amp;gt;&amp;gt;&lt;/font&gt;" style="html=1;align=center;spacing=0;verticalAlign=middle;strokeColor=none;fillColor=none;whiteSpace=wrap;spacingTop=3;" vertex="1" parent="wmWImyN5bGgDVzuGGvVu-8">
          <mxGeometry width="317.5" height="26" as="geometry" />
        </mxCell>
        <mxCell id="wmWImyN5bGgDVzuGGvVu-10" value="&lt;font style=&quot;font-size: 24px;&quot;&gt;View Profile&lt;/font&gt;" style="html=1;align=center;spacing=0;verticalAlign=middle;strokeColor=none;fillColor=none;whiteSpace=wrap;fontStyle=1" vertex="1" parent="wmWImyN5bGgDVzuGGvVu-8">
          <mxGeometry y="26" width="317.5" height="29" as="geometry" />
        </mxCell>
        <mxCell id="wmWImyN5bGgDVzuGGvVu-11" value="" style="line;strokeWidth=0.25;fillColor=none;align=left;verticalAlign=middle;spacingTop=-1;spacingLeft=3;spacingRight=3;rotatable=0;labelPosition=right;points=[];portConstraint=eastwest;" vertex="1" parent="wmWImyN5bGgDVzuGGvVu-8">
          <mxGeometry y="55" width="317.5" height="8" as="geometry" />
        </mxCell>
        <mxCell id="wmWImyN5bGgDVzuGGvVu-12" value="&lt;font style=&quot;font-size: 24px;&quot;&gt;Id=&quot;R020&quot;&lt;/font&gt;" style="html=1;align=left;spacing=0;verticalAlign=middle;strokeColor=none;fillColor=none;whiteSpace=wrap;spacingLeft=10;" vertex="1" parent="wmWImyN5bGgDVzuGGvVu-8">
          <mxGeometry y="63" width="317.5" height="23" as="geometry" />
        </mxCell>
        <mxCell id="wmWImyN5bGgDVzuGGvVu-13" value="&lt;font style=&quot;font-size: 24px;&quot;&gt;text=&quot;View user profile&quot;&lt;/font&gt;" style="html=1;align=left;spacing=0;verticalAlign=middle;strokeColor=none;fillColor=none;whiteSpace=wrap;spacingLeft=10;" vertex="1" parent="wmWImyN5bGgDVzuGGvVu-8">
          <mxGeometry y="86" width="317.5" height="34" as="geometry" />
        </mxCell>
        <mxCell id="wmWImyN5bGgDVzuGGvVu-14" value="" style="fontStyle=1;align=center;verticalAlign=middle;childLayout=stackLayout;horizontal=1;horizontalStack=0;resizeParent=1;resizeParentMax=0;resizeLast=0;marginBottom=0;" vertex="1" parent="1">
          <mxGeometry x="3771.25" y="1122" width="383" height="125" as="geometry" />
        </mxCell>
        <mxCell id="wmWImyN5bGgDVzuGGvVu-15" value="&lt;font style=&quot;font-size: 24px;&quot;&gt;&amp;lt;&amp;lt;requirement&amp;gt;&amp;gt;&lt;/font&gt;" style="html=1;align=center;spacing=0;verticalAlign=middle;strokeColor=none;fillColor=none;whiteSpace=wrap;spacingTop=3;" vertex="1" parent="wmWImyN5bGgDVzuGGvVu-14">
          <mxGeometry width="383" height="27" as="geometry" />
        </mxCell>
        <mxCell id="wmWImyN5bGgDVzuGGvVu-16" value="&lt;font style=&quot;font-size: 24px;&quot;&gt;Edit Profile&lt;/font&gt;" style="html=1;align=center;spacing=0;verticalAlign=middle;strokeColor=none;fillColor=none;whiteSpace=wrap;fontStyle=1" vertex="1" parent="wmWImyN5bGgDVzuGGvVu-14">
          <mxGeometry y="27" width="383" height="29" as="geometry" />
        </mxCell>
        <mxCell id="wmWImyN5bGgDVzuGGvVu-17" value="" style="line;strokeWidth=0.25;fillColor=none;align=left;verticalAlign=middle;spacingTop=-1;spacingLeft=3;spacingRight=3;rotatable=0;labelPosition=right;points=[];portConstraint=eastwest;" vertex="1" parent="wmWImyN5bGgDVzuGGvVu-14">
          <mxGeometry y="56" width="383" height="8" as="geometry" />
        </mxCell>
        <mxCell id="wmWImyN5bGgDVzuGGvVu-18" value="&lt;font style=&quot;font-size: 24px;&quot;&gt;Id=&quot;R021&quot;&lt;/font&gt;" style="html=1;align=left;spacing=0;verticalAlign=middle;strokeColor=none;fillColor=none;whiteSpace=wrap;spacingLeft=10;" vertex="1" parent="wmWImyN5bGgDVzuGGvVu-14">
          <mxGeometry y="64" width="383" height="23" as="geometry" />
        </mxCell>
        <mxCell id="wmWImyN5bGgDVzuGGvVu-19" value="&lt;font style=&quot;font-size: 24px;&quot;&gt;text=&quot;Modify existing information&quot;&lt;/font&gt;" style="html=1;align=left;spacing=0;verticalAlign=middle;strokeColor=none;fillColor=none;whiteSpace=wrap;spacingLeft=10;" vertex="1" parent="wmWImyN5bGgDVzuGGvVu-14">
          <mxGeometry y="87" width="383" height="38" as="geometry" />
        </mxCell>
        <mxCell id="wmWImyN5bGgDVzuGGvVu-24" value="&lt;font style=&quot;font-size: 20px;&quot;&gt;&amp;lt;&amp;lt;depends on&amp;gt;&amp;gt;&lt;/font&gt;" style="edgeStyle=none;html=1;endArrow=open;endSize=12;dashed=1;verticalAlign=bottom;rounded=0;entryX=1;entryY=0;entryDx=0;entryDy=0;exitX=0;exitY=0;exitDx=0;exitDy=0;" edge="1" parent="1" source="wmWImyN5bGgDVzuGGvVu-6" target="T8jwcUpZhJJAnp_-eP6j-17">
          <mxGeometry x="0.0062" width="160" relative="1" as="geometry">
            <mxPoint x="3582" y="693" as="sourcePoint" />
            <mxPoint x="2848" y="501" as="targetPoint" />
            <mxPoint as="offset" />
          </mxGeometry>
        </mxCell>
        <mxCell id="wmWImyN5bGgDVzuGGvVu-25" value="&lt;font style=&quot;font-size: 20px;&quot;&gt;&amp;lt;&amp;lt;refine&amp;gt;&amp;gt;&lt;/font&gt;" style="edgeStyle=none;html=1;endArrow=open;endSize=12;dashed=1;verticalAlign=bottom;rounded=0;exitX=0.5;exitY=0;exitDx=0;exitDy=0;entryX=0.75;entryY=1;entryDx=0;entryDy=0;" edge="1" parent="1" source="wmWImyN5bGgDVzuGGvVu-9" target="wmWImyN5bGgDVzuGGvVu-7">
          <mxGeometry x="-0.3588" width="160" relative="1" as="geometry">
            <mxPoint x="4018" y="913" as="sourcePoint" />
            <mxPoint x="4104" y="731" as="targetPoint" />
            <mxPoint as="offset" />
          </mxGeometry>
        </mxCell>
        <mxCell id="wmWImyN5bGgDVzuGGvVu-26" value="&lt;font style=&quot;font-size: 20px;&quot;&gt;&amp;lt;&amp;lt;Modifies&amp;gt;&amp;gt;&lt;/font&gt;" style="edgeStyle=none;html=1;endArrow=open;endSize=12;dashed=1;verticalAlign=bottom;rounded=0;entryX=0.5;entryY=1;entryDx=0;entryDy=0;exitX=0.5;exitY=0;exitDx=0;exitDy=0;" edge="1" parent="1" source="wmWImyN5bGgDVzuGGvVu-15" target="wmWImyN5bGgDVzuGGvVu-13">
          <mxGeometry x="-0.2268" y="-1" width="160" relative="1" as="geometry">
            <mxPoint x="4078" y="1235" as="sourcePoint" />
            <mxPoint x="3789" y="949" as="targetPoint" />
            <mxPoint as="offset" />
          </mxGeometry>
        </mxCell>
      </root>
    </mxGraphModel>
  </diagram>
</mxfile>
